<?xml version="1.0" encoding="utf-8"?>
<!-- Generator: Adobe Illustrator 23.0.3, SVG Export Plug-In . SVG Version: 6.00 Build 0)  -->
<svg version="1.1" id="图层_1" xmlns="http://www.w3.org/2000/svg" xmlns:xlink="http://www.w3.org/1999/xlink" x="0px" y="0px"
	 viewBox="0 0 153 101" style="enable-background:new 0 0 153 101;" xml:space="preserve">
<style type="text/css">
	.st0{fill:#FFFFFF;}
	.st1{font-family:'STHupo';}
	.st2{font-size:14.7164px;}
</style>
<g>
	<path d="M46.82,27.86c-2.39-1.48-5.43-1.35-7.77-2.92c0.03-0.1,0.05-0.21,0.08-0.31c0.22,0.01,0.46-0.02,0.67,0.05
		c2.63,0.91,5.26,1.86,7.9,2.75c1.12,0.38,2.32,0.55,3.42,0.98c1.01,0.39,1.55,0.14,1.84-0.86c-2.84-2.28-5.69-4.57-8.54-6.86
		c3.49,1.43,5.7,4.66,9.15,6.36c0.59-0.66,1.24-1.37,1.95-2.16c-0.53-0.93-1.16-1.83-1.58-2.83c-0.37-0.88-0.38-1.93-0.77-2.8
		c-0.78-1.74-1.72-3.41-2.5-5.28c0.29,0.25,0.7,0.45,0.87,0.76c0.97,1.82,2.08,3.54,2.47,5.67c0.22,1.23,1.16,2.34,1.82,3.48
		c0.37,0.65,0.91,0.34,1.23,0c1.62-1.69,3.39-3.35,3.42-5.91c0.03-2.28,0.97-4.26,1.77-6.29c0.83-2.1,1.77-4.16,2.71-6.21
		c0.45-1,0.94-1.99,1.52-2.92c0.8-1.27,2.91-1.09,4.17,0.22c0.54,0.56,1.24,0.97,1.8,1.51c0.83,0.81,1.7,1.61,2.38,2.54
		c1.5,2.07,2.96,4.19,4.32,6.36c0.89,1.42,1.03,1.53,2.69,1.41c1.81-0.12,3.62-0.13,5.43-0.1c1.16,0.01,2.1-0.08,2.71-1.32
		c1.97-4.01,5.12-7.2,7.71-10.79c0.33-0.45,0.77-0.83,1.21-1.19c2.04-1.65,3.53-0.73,4.41,1.48c1.91,4.81,1.99,9.89,2.34,14.95
		c0.13,1.92,0.65,3.64,2.59,4.71c1.16,0.64,2.09,1.73,3.09,2.65c0.45,0.41,0.81,0.63,1.34,0.11c0.87-0.84,1.77-1.64,2.67-2.45
		c1.6-1.44,3.18-2.89,4.8-4.3c0.28-0.24,0.72-0.3,1.18-0.47c-3.07,2.87-6.01,5.6-8.91,8.3c0.97,1.8,1.43,1.85,3.06,0.73
		c2.55-1.75,5.15-3.43,7.73-5.13c0.08-0.06,0.2-0.06,0.45,0.09c-0.25,0.2-0.49,0.42-0.76,0.59c-1.95,1.23-3.95,2.4-5.86,3.69
		c-1.12,0.76-2.12,1.71-3.13,2.8c3.84-0.61,7.67-1.22,11.45-1.83c-0.03,0.55-0.15,0.69-1.08,0.85c-1.6,0.27-3.21,0.52-4.8,0.8
		c-0.44,0.08-0.87,0.23-1.3,0.47c1.07,0.29,1.95,1.66,3.26,0.47c0.13-0.12,0.56-0.16,0.6-0.08c0.82,1.27,3.19,0.45,3.17,2.62
		c1.15-0.44,2.08-0.82,3.03-1.15c1.38-0.48,2.57,0.17,2.75,1.64c0.24,1.94,0.34,3.91,0.45,5.87c0.15,2.71,0.26,5.42,0.39,8.13
		c2.51,0.14,4.77,0.48,6.62,1.92c4.68,3.64,3.61,9.87-1.1,12.35c-1.42,0.75-3,1.2-4.52,1.77c-1,0.37-1.17,1.22-1.2,2.1
		c-0.08,2.38-0.03,4.76-0.19,7.13c-0.2,3.05-0.55,6.08-0.84,9.12c0,0.04-0.03,0.07-0.02,0.11c0.27,2.83-1.92,3.48-3.87,4.21
		c-0.97,0.36-1.15,0.64-0.71,1.61c1.82,4.05,0.55,7.28-2.5,10.06c-2.01,1.83-4.67,1.98-7.19,2.3c-1.2,0.15-2.49,0.04-3.67-0.25
		c-2.37-0.58-3.15-2.58-3.52-4.68c-0.22-1.22-0.93-1.44-1.82-1.28c-1.82,0.33-3.6,0.82-5.41,1.23c-3.46,0.78-6.92,1.53-10.37,2.33
		c-0.44,0.1-0.92,0.39-1.21,0.74c-1.88,2.28-4.17,3.29-7.2,2.88c-2.18-0.29-4.11-0.83-5.76-2.35c-0.52-0.48-1.35-0.63-2.05-0.88
		c-2.98-1.1-5.95-2.2-8.94-3.28c-1.77-0.63-3.55-1.22-5.33-1.82c-0.91-0.31-1.5,0.2-1.82,0.93c-1.1,2.52-3.4,3.26-5.73,3.72
		c-1.83,0.36-3.76,0.36-5.64,0.33c-2.33-0.04-4.57-0.52-6.39-2.17c-0.56-0.5-1.23-0.88-1.82-1.35c-2.02-1.61-3.11-6.04-1.68-8.56
		c0.45-0.78,0.9-1.57,1.4-2.31c0.5-0.73,0.4-1.26-0.4-1.65c-0.31-0.15-0.61-0.38-0.93-0.41c-1.43-0.14-1.69-1.15-1.81-2.3
		c-0.04-0.34-0.12-0.67-0.12-1.01c-0.01-0.89-0.47-1.11-1.31-1.15c-1.64-0.08-3.3-0.21-4.91-0.5c-2.15-0.39-3.73-1.78-5.28-3.23
		c-1.06-0.99-2.19-2.04-3.49-2.58c-2.08-0.86-4.34-0.61-6.57-0.4c-1.33,0.13-2.73,0.15-4.02-0.15c-2.25-0.52-2.69-2.7-1.15-4.39
		c2.76-3.05,6.29-3.26,10.02-2.95c3.82,0.31,6.86,1.93,9.32,4.94c1.4,1.72,3.44,2.56,5.79,2.25c0.7-0.09,1.04-0.23,0.93-1.13
		c-0.45-3.79-0.88-7.58-0.33-11.4c0.15-1.07-0.07-1.75-1.35-2c-0.87-0.17-1.75-0.71-2.45-1.3c-1.8-1.51-3.38-3.19-4.31-5.44
		c-1.5-3.59,1.29-8.51,4.92-8.69c0.94-0.05,1.88-0.27,2.82-0.26c0.92,0.01,1.35-0.42,1.49-1.22c0.21-1.19,0.34-2.39,0.54-3.58
		c0.12-0.7,0.23-1.43,0.5-2.08c0.26-0.61,0.64-1.2,1.56-0.92c0.64,0.2,0.96-0.1,0.91-0.85c-0.1-1.64,0.1-1.79,1.81-1.6
		c0.08,0.01,0.18,0.06,0.22,0.03c1.51-1.25,3.34-0.08,4.94-0.67C46.72,28.02,46.76,27.94,46.82,27.86z M128.5,53.07
		c-1.5-0.41-1.77-0.77-1.78-2.26c0-1.36,1.43-3.13,3.08-3.51c1.11-0.26,1.39-0.79,1.27-1.84c-0.15-1.24-0.14-2.49-0.24-3.73
		c-0.23-2.89-0.45-5.78-0.74-8.66c-0.14-1.36-0.72-1.66-2.05-1.21c-0.5,0.17-0.99,0.37-1.45,0.63c-2.01,1.13-3.96,2.35-6.01,3.41
		c-1.5,0.78-3.18,1.23-4.66,2.03c-2.59,1.4-5.05,3.02-7.64,4.43c-3.25,1.77-6.57,3.44-9.88,5.09c-1.25,0.62-2.54,1.18-3.86,1.62
		c-2.39,0.81-4.9,1.39-6.16,3.92c-0.21,0.42-0.36,0.92-0.36,1.39c-0.02,1.43,0.07,2.86,0.06,4.29c-0.02,1.96-0.19,3.93-0.14,5.89
		c0.1,3.27,0.32,6.54,0.51,9.81c0.09,1.58,0.22,3.15,0.35,4.73c0.35,4.25,0.73,8.5,1.06,12.75c0.07,0.93,0.01,1.87,0.01,2.8
		c-0.14,0.03-0.29,0.06-0.43,0.09c-0.22-0.67-0.59-1.33-0.65-2.02c-0.32-4.02-0.58-8.05-0.83-12.08c-0.17-2.82-0.31-5.64-0.43-8.46
		c-0.15-3.89-0.3-7.78-0.37-11.67c-0.03-1.66,0.11-3.32,0.18-4.98c0.03-0.79-0.26-1.15-1.09-0.81c-1.59,0.66-3.21,0.89-4.88,0.35
		c-0.86-0.28-1.68-0.65-2.78-1.08c-0.32,2.28-0.23,4.51-0.17,6.73c0.06,2.27,0.17,4.54,0.2,6.81c0.03,2.24,0.03,4.48-0.01,6.71
		c-0.04,2.27-0.17,4.54-0.24,6.8c-0.07,2.26-0.11,4.53-0.17,6.8c-0.05,2.17-0.1,4.34-0.16,6.51c-0.15,0-0.3,0-0.45,0
		c-0.14-0.92-0.4-1.84-0.4-2.76c-0.01-2.22,0.12-4.43,0.17-6.65c0.07-3.71,0.14-7.42,0.18-11.13c0.05-4.54,0.09-9.08,0.11-13.63
		c0.01-2.52-0.07-5.04,0-7.56c0.02-0.64-0.14-0.9-0.66-1.23c-2-1.28-4.09-2.48-5.89-4.01c-1.66-1.41-3.46-2.5-5.33-3.54
		c-2.03-1.13-4.13-2.14-6.09-3.37c-3.29-2.06-6.7-3.74-10.61-4.27c-1.03-0.14-2.05-0.55-3.01-0.99c-2.05-0.95-4.03-2.02-6.07-3
		c-0.63-0.3-1.34-0.42-1.84,0.3c-1.1,1.57-1.05,3.37-0.89,5.14c0.13,1.44,1.46,1.89,2.43,2.66c0.81,0.64,1.62,1.39,2.16,2.25
		c0.99,1.56,0.43,3.47-1.09,4.52c-0.25,0.17-0.59,0.53-0.55,0.75c0.27,1.8-0.98,2.66-2.03,3.78c-0.91,0.96-1.64,2.24-2.02,3.51
		c-0.38,1.27-0.3,2.7-0.29,4.05c0.02,2.94,0.07,5.88,0.22,8.82c0.15,2.98,0.43,5.95,0.68,8.92c0.17,2.05,0.4,2.65,1.96,3.17
		c0.6,0.2,1.12,0.62,1.67,0.96c2.1,1.32,4.16,2.49,6.69,0.79c0.89-0.59,2.02-0.24,2.87,0.42c1.03,0.8,1.97,1.7,2.96,2.56
		c1.32-1.18,1.55-1.26,2.85-0.93c2.78,0.69,4.17,2.55,4.22,5.42c0.01,0.62,0.23,1.56,0.65,1.79c1.46,0.77,3.03,1.32,4.59,1.88
		c0.85,0.31,1.76,0.45,2.62,0.72c3.06,0.97,6.11,1.97,9.15,2.97c0.45,0.15,1.04,0.3,1.28,0.64c1.58,2.29,3.93,2.29,6.23,2.01
		c1.29-0.15,2.88-0.52,3.69-1.39c1.42-1.53,3.14-1.99,4.96-2.45c4.68-1.2,9.36-2.37,14.04-3.56c0.78-0.2,1.28-0.58,1.47-1.49
		c0.18-0.87,0.62-1.71,1.06-2.5c1.23-2.17,3.36-2.71,5.44-1.45c1.17-2.06,2.52-2.53,4.06-1.22c1.01,0.85,1.83,1.39,2.9,0.21
		c0.11-0.12,0.34-0.15,0.53-0.19c1.43-0.3,2.87-0.6,4.3-0.89c1.9-0.38,2.46-1.02,2.7-2.86c0.35-2.73,0.92-5.45,1.11-8.19
		c0.18-2.58-0.03-5.18-0.05-7.78c0-0.49,0.14-0.98,0.1-1.46c-0.05-0.57-0.03-1.32-0.37-1.66c-1.75-1.77-1.81-1.84-0.89-3.96
		C127.4,57.63,126.61,55.36,128.5,53.07z M61.97,34.15c-0.01,0.12-0.03,0.23-0.04,0.35c0.14,0.11,0.27,0.24,0.42,0.32
		c3.17,1.59,6.43,3.02,9.5,4.78c3.78,2.17,8.06,2.77,12.04,4.29c0.76,0.29,1.07-0.06,0.89-0.84c-0.27-1.17-0.54-2.34-0.76-3.51
		c-0.14-0.74-0.32-1.35-1.14-1.66c-0.57-0.22-0.91-0.86-0.22-1.18c1.02-0.48,2.17-0.69,3.45-0.23c-0.41,0.43-0.7,0.72-0.97,1.03
		c-0.26,0.3-0.72,0.66-0.68,0.94c0.23,1.57,0.58,3.13,0.93,4.87c4.22-2.55,8.21-4.96,12.14-7.33c-0.36-0.64-0.71-1.16-0.95-1.74
		c-0.22-0.54-0.32-1.12-0.48-1.69c-0.47,0.37-1,0.69-1.41,1.11c-1.21,1.23-3.24,1.63-4.58,0.84c-1.95-1.14-2.19-1.87-1.42-4.24
		c0.02-0.07,0.08-0.15,0.07-0.21c-0.09-0.46-0.03-1.09-0.32-1.35c-0.89-0.82-1.19-1.72-1.12-2.93c0.03-0.61-0.42-1.33-0.85-1.83
		c-0.12-0.14-1.06,0.24-1.45,0.58c-0.82,0.72-1.54,1.56-2.27,2.38c-0.8,0.92-1.67,1.48-2.97,1.09c-1.1-0.33-1.93,0.17-2.42,1.15
		c-0.48,0.94-0.86,1.93-1.3,2.89c-1.16,2.54-4.21,3.35-6.45,1.68c-0.6-0.45-1.1-1.04-1.74-1.43c-0.8-0.5-1.16-0.27-1.14,0.68
		c0.02,0.72-0.31,1.07-0.96,1.15c-0.52,0.06-1.05,0.04-1.57,0.04C63.46,34.15,62.72,34.15,61.97,34.15z M44.99,86.63
		c-0.09,0.03-0.17,0.06-0.26,0.09c-0.11-0.36-0.26-0.72-0.31-1.09c-0.15-1.25-1.18-2.33-2.65-2.74c-0.91-0.25-2.08,0.23-2.7,1.26
		c-1.49,2.49-1.98,4.96,0,7.76c2.04,2.88,4.97,4.5,8.56,4.57c1.99,0.04,4.06,0.13,5.96-0.33c1.96-0.48,4.23-0.96,4.94-3.41
		c0.26-0.9,0.46-1.81,0.65-2.73c0.49-2.46-0.51-4.32-2.79-5.26c-1.81-0.74-3.03-0.1-3.43,1.83c-0.09,0.44-0.08,0.9-0.15,1.35
		c-0.04,0.25-0.12,0.5-0.19,0.75c-0.12-0.01-0.23-0.02-0.35-0.03c-0.02-0.41-0.09-0.83-0.06-1.24c0.13-2.15-0.92-3.93-2.89-4.81
		c-1.4-0.63-3.27,0.01-3.82,1.44C45.2,84.83,45.15,85.75,44.99,86.63z M119.93,90.01c-0.81-0.72-0.75-1.37-0.36-2.06
		c0.46-0.82,0.17-1.52-0.51-1.98c-0.47-0.32-1.16-0.66-1.65-0.54c-0.8,0.2-1.29,0.91-1.17,1.84c0.06,0.45,0.29,0.89,0.26,1.32
		c-0.03,0.36-0.35,0.69-0.54,1.03c-0.26-0.23-0.6-0.41-0.76-0.69c-0.24-0.42-0.32-0.93-0.52-1.37c-0.55-1.24-1.53-1.64-2.62-0.84
		c-0.88,0.65-1.68,1.52-2.22,2.46c-1.42,2.49-0.42,4.95,0.51,7.29c0.31,0.79,1.14,1.64,1.92,1.91c1.31,0.45,2.8,0.74,4.15,0.6
		c2.46-0.27,5.04-0.56,6.82-2.61c0.79-0.92,1.41-2.01,1.99-3.09c1.19-2.21,1-4.42-0.28-6.52c-0.22-0.36-0.92-0.75-1.25-0.65
		c-1.41,0.42-2.84,0.93-3.29,2.62C120.32,89.11,120.14,89.47,119.93,90.01z M132.6,57.15c0.05,0.13,0.09,0.25,0.14,0.38
		c-0.55,0.29-1.23,0.47-1.6,0.9c-0.47,0.55-1,1.33-0.95,1.97c0.08,0.98,0.91,1.48,1.98,1.41c3.34-0.19,6.11-1.25,7.84-4.41
		c1.49-2.74,1.01-5.62-1.32-7.73c-1.34-1.22-2.92-1.65-4.55-2.13c-1.86-0.54-5.21,0.46-6.25,2.05c-0.34,0.51-0.45,1.4-0.24,1.96
		c0.15,0.4,0.99,0.69,1.56,0.75c0.78,0.09,1.58-0.09,2.38-0.15c0.05,0.12,0.09,0.25,0.14,0.37c-0.57,0.24-1.13,0.52-1.71,0.72
		c-1.31,0.45-2.11,1.74-1.75,2.9c0.39,1.28,1.56,1.82,3.01,1.39C131.7,57.4,132.15,57.28,132.6,57.15z M37.07,45.88
		c0.07-0.16,0.14-0.32,0.21-0.48c0.55,0.22,1.13,0.4,1.65,0.68c1.27,0.69,2.37,0.18,2.53-1.21c0.23-2.01-2.18-4.77-4.32-4.75
		c-1.87,0.02-3.78,0.12-5.61,0.48c-3.8,0.75-4.85,4.15-3.88,7.31c0.66,2.15,2.29,3.51,3.87,4.88c0.74,0.64,1.71,1.09,2.65,1.42
		c0.9,0.32,1.62-0.24,2.04-1.02c0.39-0.73,0.3-1.48-0.39-2.04c-0.47-0.37-0.97-0.71-1.49-1.01c-0.25-0.15-0.58-0.17-0.87-0.25
		c0.2-0.24,0.39-0.48,0.59-0.72c0.57,0.33,1.15,0.62,1.69,0.99c1.56,1.05,3.13,0.62,3.5-0.99c0.27-1.17-0.28-2.25-1.39-2.77
		C37.57,46.26,37.33,46.05,37.07,45.88z M71.86,14.22c0.02,0,0.04,0,0.05,0c-0.02-0.19-0.03-0.38-0.07-0.56
		c-0.47-1.89-0.87-3.81-1.44-5.67c-0.44-1.43-1-2.85-1.68-4.19c-0.66-1.28-1.49-1.25-2.28-0.03c-0.47,0.72-0.88,1.49-1.24,2.28
		c-0.82,1.82-1.51,3.7-2.4,5.48c-1.3,2.6-1.66,5.36-1.65,8.21c0,0.68,0.3,1.2,1.04,0.57c0.74-0.62,1.41-0.51,2.18-0.08
		c0.24,0.13,0.73,0.17,0.89,0.02c0.64-0.6,1.24-1.26,1.77-1.96c0.38-0.5,0.51-1.32,0.99-1.59c0.37-0.21,1.11,0.18,1.65,0.39
		c1.28,0.48,2.12,0.05,2.2-1.19C71.89,15.34,71.86,14.78,71.86,14.22z M49.84,29.87c-0.04,0.09-0.09,0.18-0.13,0.27
		c0.09,0.11,0.16,0.25,0.28,0.32c2.78,1.66,5.57,3.33,8.37,4.96c1.14,0.66,2.31,1.26,3.47,1.89c2.29,1.23,4.6,2.42,6.86,3.72
		c1.11,0.63,2.07,1.51,3.16,2.18c2.63,1.63,5.29,3.22,7.96,4.79c0.63,0.37,1.44,0.96,2.02,0.83c1.85-0.43,3.44,0.02,5.01,0.92
		c2.27-2.51,5.92-2.51,8.4-4.62c-2.81,0.85-5.78,1.25-8.11,3.28c-0.32,0.28-0.94,0.22-1.42,0.32c-0.04-0.12-0.07-0.24-0.11-0.36
		c1.04-0.86,2.01-1.85,3.14-2.56c2.46-1.55,5.01-2.95,7.51-4.44c3.5-2.1,7-4.2,10.47-6.34c1.96-1.21,3.88-2.49,5.8-3.75
		c0.44-0.29,0.81-0.67,1.21-1c-0.08-0.1-0.16-0.19-0.24-0.29c-1.05,0.41-2.14,0.73-3.13,1.25c-6.04,3.12-12.15,6.12-17.83,9.88
		c-3.03,2.01-6.53,3.41-8.54,6.72c-0.03,0.05-0.13,0.06-0.4,0.17c-0.75-0.71-1.46-1.63-2.39-2.2c-1.04-0.65-2.29-0.95-3.42-1.47
		c-3.94-1.83-7.91-3.62-11.79-5.56c-2.77-1.38-5.44-2.96-8.11-4.52c-1.56-0.91-3.01-2.03-4.58-2.92C52.22,30.7,51,30.34,49.84,29.87
		z M96.31,14.27c0.54,0,0.73,0.01,0.91,0c1.36-0.11,1.96,0.4,2.02,1.75c0.01,0.26,0.02,0.53,0.03,0.79c0.05,0.8,0.32,1.06,1.16,0.68
		c0.98-0.44,2.02-0.75,2.79,0.47c0.4,0.63,0.9,1.18,1.49,1.96c0.14-0.64,0.37-1.25,0.37-1.86c0.01-0.74-0.21-1.49-0.27-2.24
		c-0.16-1.98-0.16-3.98-0.44-5.95c-0.29-2.04-0.77-4.06-1.27-6.06c-0.22-0.86-0.21-1.93-1.51-2.47c-0.92,2.11-1.83,4.19-2.74,6.28
		c-0.01,0.03-0.01,0.08-0.01,0.11c0.19,1.69-0.49,3.09-1.4,4.44C97.04,12.75,96.76,13.4,96.31,14.27z M87.4,49.77
		c0.78,0.75,1.12,0.89,1.82,0.39c1.15-0.83,2.44-1.69,3.79-1.99c4.98-1.12,9.29-3.78,13.85-5.83c2.26-1.02,4.3-2.52,6.5-3.68
		c2.26-1.19,4.63-2.17,6.91-3.35c1.31-0.67,2.49-1.58,3.77-2.3c0.66-0.37,0.76-0.76,0.38-1.36c-0.41-0.64-0.84-0.69-1.5-0.25
		c-4.15,2.79-8.54,5.09-13.27,6.79c-2.51,0.9-4.84,2.31-7.22,3.53c-1.78,0.92-3.64,1.74-5.24,2.91c-2.02,1.48-4.21,2.49-6.53,3.35
		C89.57,48.4,88.58,49.11,87.4,49.77z M76.79,24.84c-0.56,0.17-1.12,0.35-1.69,0.51c-2.47,0.7-4.41,2.17-5.85,4.25
		c-1.23,1.78-0.19,3.83,2.02,3.98c-0.33-0.83-0.35-1.63,0.58-2.01c1.34-0.56,2.43-0.21,3.05,1.23
		C76.51,30.73,77.49,26.56,76.79,24.84z M94.39,24.5c-0.43,0.32-0.66,0.46-0.83,0.64c-1.15,1.24-2.31,2.48-3.43,3.75
		c-0.92,1.04-1.38,2.24-1.09,3.66c0.12,0.61,0.38,0.87,1.02,0.49c1.55-0.95,2.16-0.79,3.39,1.04c0.52-0.65,1.13-1.17,1.43-1.83
		C96.06,29.66,95,27.21,94.39,24.5z M78.57,51.95c0.38,0.55,0.65,1.21,1.13,1.55c0.57,0.4,1.32,0.61,2.01,0.73
		c2.01,0.34,4.01,0.5,5.62-1.17c0.82-0.85,0.85-1.81,0-2.36C84.43,48.83,81.06,48.6,78.57,51.95z M55.73,37.51
		c0.02-0.07,0.05-0.14,0.07-0.21c-2.33-1.33-4.66-2.67-6.99-3.99c-1.73-0.98-3.47-1.95-5.21-2.91c-0.78-0.43-1.54-0.91-2.37-1.23
		c-0.67-0.26-1.05,0.01-0.98,0.84c0.13,1.55,1.21,2.28,2.4,2.89c1.34,0.68,2.71,1.3,4.09,1.88c0.76,0.32,1.57,0.53,2.37,0.74
		c1.38,0.37,2.78,0.66,4.14,1.05C54.1,36.81,54.91,37.19,55.73,37.51z M89.66,45.86c0.07,0.13,0.14,0.26,0.2,0.39
		c1.09-0.5,2.23-0.92,3.25-1.53c1.61-0.97,3.06-2.24,4.73-3.1c3.06-1.57,6.2-2.95,8.94-5.1c1.36-1.06,2.93-1.86,4.44-2.73
		c1.92-1.1,3.88-2.14,6.17-3.4c-1.03-0.48-1.73-0.81-2.31-1.08c-0.49,0.62-0.79,1.17-1.24,1.52c-1.34,1.05-2.69,2.1-4.13,2.99
		c-3.95,2.44-7.95,4.82-11.94,7.2c-2.33,1.39-4.69,2.73-7.04,4.1C90.36,45.35,90.02,45.61,89.66,45.86z M55.16,31.48
		c-0.07,0.13-0.13,0.26-0.2,0.39c1.91,1.1,3.78,2.28,5.73,3.29c4.89,2.54,9.81,5.04,14.75,7.5c1.35,0.67,2.84,1.05,4.19,1.71
		c0.96,0.46,1.8,1.17,2.69,1.76c0.39,0.26,0.78,0.5,1.16,0.75c0.19-0.47,0.54-0.95,0.53-1.42c-0.01-0.34-0.44-0.77-0.79-0.97
		c-0.65-0.36-1.38-0.61-2.09-0.85c-2.18-0.72-4.45-1.25-6.55-2.17c-3.08-1.34-6.07-2.89-9.05-4.44c-3.08-1.6-6.1-3.32-9.15-4.99
		C55.99,31.84,55.57,31.67,55.16,31.48z M80.35,49.47c0.04-0.16,0.08-0.33,0.12-0.49c-7.95-4.85-15.69-10.06-24.31-13.84
		c0.03,0.17,0.19,0.2,0.32,0.27c4.19,2.39,8.59,4.45,12.19,7.78c0.65,0.6,1.47,1.07,2.28,1.45c2.81,1.33,5.54,2.77,7.93,4.79
		C79.16,49.68,79.84,49.47,80.35,49.47z M105.26,38.26c3.03-0.16,12-5.15,14.15-7.73c-0.45-0.08-0.96-0.17-1.32,0.02
		c-2.63,1.4-5.27,2.8-7.83,4.32C108.53,35.89,106.92,37.12,105.26,38.26z M61.21,38.62c-0.05,0.1-0.11,0.19-0.16,0.29
		c2.11,1.62,4.18,3.3,6.36,4.83c2,1.4,4.13,2.62,6.18,3.96c0.5,0.32,1.09,0.71,1.3,1.21c0.51,1.19,1.62,1.38,2.6,1.78
		c0.35,0.14,0.85-0.09,1.28-0.15c0.05-0.17,0.1-0.34,0.15-0.51c-1.48-1-2.91-2.08-4.44-3c-2.03-1.22-4.19-2.23-6.19-3.5
		c-1.39-0.88-2.55-2.11-3.9-3.08C63.39,39.75,62.27,39.23,61.21,38.62z M103.89,33.93c-0.45-0.1-0.58-0.17-0.65-0.14
		c-2.16,1.08-4.37,2.09-6.46,3.28c-2.52,1.44-4.94,3.04-7.41,4.56c-1.28,0.79-2.62,1.49-3.86,2.35c-0.41,0.28-0.58,0.91-0.95,1.53
		C90.68,40.94,97.25,37.63,103.89,33.93z M111.89,36.42c0.03,0.06,0.06,0.12,0.09,0.18c0.14-0.01,0.29,0.02,0.42-0.03
		c3.3-1.24,6.28-3.09,9.27-4.93c0.13-0.08,0.3-0.15,0.35-0.27c0.09-0.21,0.21-0.52,0.12-0.67c-0.09-0.17-0.43-0.31-0.62-0.28
		c-0.28,0.05-0.53,0.27-0.79,0.42c-2.05,1.26-4.11,2.5-6.15,3.78C113.66,35.19,112.79,35.82,111.89,36.42z M43.4,28.87
		c-0.11,0.21-0.23,0.43-0.34,0.64c2.75,1.58,5.51,3.16,8.26,4.74C49.02,31.89,46.6,29.73,43.4,28.87z M45.55,28.66
		c-0.01,0.11-0.02,0.22-0.03,0.33c3.36,2.36,6.73,4.73,10.31,7.25c-0.05-0.49-0.03-0.6-0.06-0.63c-2.72-2.04-5.43-4.09-8.18-6.07
		C47,29.11,46.23,28.94,45.55,28.66z M104.93,39.82c-0.06-0.11-0.12-0.22-0.18-0.33c-0.32,0.15-0.64,0.33-0.98,0.46
		c-1.74,0.68-3.47,1.41-5.24,2.01c-1.37,0.46-2.54,1.18-3.52,2.24c0.55-0.09,1-0.36,1.47-0.59c0.9-0.44,1.78-1.12,2.73-1.25
		C101.42,42.05,103.02,40.64,104.93,39.82z M58.86,37.89c0.81,1.84,2.37,2.98,3.89,2.99C61.39,39.83,60.12,38.86,58.86,37.89z
		 M47.82,28.45c-0.04,0.15-0.08,0.3-0.12,0.44c0.9,0.28,1.81,0.55,2.71,0.83c0.04-0.15,0.09-0.31,0.13-0.46
		C49.64,28.99,48.73,28.72,47.82,28.45z"/>
	<path class="st0" d="M130.83,64.09c-0.05-0.57-0.03-1.32-0.37-1.66c-1.75-1.77-1.81-1.85-0.89-3.96c-2.18-0.84-2.96-3.11-1.07-5.4
		c-1.5-0.41-1.77-0.77-1.78-2.26c0-1.36,1.43-3.13,3.07-3.51c1.11-0.26,1.39-0.79,1.27-1.84c-0.15-1.24-0.14-2.49-0.24-3.73
		c-0.23-2.89-0.45-5.78-0.74-8.66c-0.14-1.35-0.72-1.66-2.05-1.21c-0.5,0.17-1,0.37-1.45,0.63c-2.01,1.13-3.96,2.35-6.01,3.4
		c-1.5,0.78-3.17,1.23-4.66,2.03c-2.59,1.4-5.05,3.02-7.64,4.42c-3.25,1.77-6.57,3.44-9.88,5.09c-1.25,0.62-2.54,1.18-3.86,1.62
		c-2.39,0.81-4.9,1.39-6.16,3.92c-0.21,0.42-0.36,0.92-0.36,1.39c-0.02,1.43,0.08,2.86,0.06,4.29c-0.02,1.96-0.19,3.93-0.13,5.89
		c0.1,3.27,0.32,6.54,0.51,9.81c0.09,1.58,0.22,3.16,0.35,4.73c0.35,4.25,0.72,8.5,1.06,12.75c0.07,0.93,0.01,1.86,0.01,2.8
		c-0.14,0.03-0.28,0.06-0.43,0.09c-0.23-0.67-0.59-1.33-0.65-2.02c-0.32-4.02-0.58-8.05-0.83-12.08c-0.17-2.82-0.32-5.64-0.43-8.46
		c-0.15-3.89-0.3-7.78-0.38-11.67c-0.03-1.66,0.11-3.32,0.18-4.98c0.03-0.79-0.26-1.15-1.09-0.81c-1.59,0.66-3.22,0.89-4.88,0.35
		c-0.86-0.28-1.68-0.65-2.78-1.08c-0.33,2.28-0.23,4.51-0.17,6.73c0.05,2.27,0.17,4.54,0.2,6.81c0.03,2.23,0.03,4.47-0.01,6.71
		c-0.05,2.27-0.17,4.54-0.24,6.8c-0.07,2.26-0.11,4.53-0.17,6.8c-0.05,2.17-0.1,4.34-0.16,6.51c-0.15,0-0.3,0-0.45,0
		c-0.14-0.92-0.4-1.84-0.4-2.76c-0.01-2.22,0.12-4.43,0.17-6.65c0.07-3.71,0.14-7.42,0.18-11.13c0.05-4.54,0.09-9.08,0.11-13.63
		c0.01-2.52-0.07-5.04,0-7.56c0.02-0.64-0.14-0.9-0.66-1.23c-2-1.28-4.09-2.48-5.89-4.01c-1.66-1.41-3.46-2.51-5.33-3.54
		c-2.03-1.13-4.13-2.14-6.09-3.37c-3.3-2.06-6.7-3.74-10.61-4.26c-1.03-0.14-2.05-0.55-3.01-0.99c-2.05-0.95-4.03-2.02-6.07-3
		c-0.63-0.3-1.33-0.42-1.84,0.3c-1.1,1.57-1.05,3.37-0.89,5.14c0.13,1.45,1.46,1.9,2.43,2.66c0.81,0.64,1.62,1.39,2.16,2.25
		c0.99,1.56,0.43,3.47-1.09,4.52c-0.25,0.17-0.58,0.53-0.55,0.75c0.27,1.8-0.98,2.66-2.03,3.78c-0.91,0.96-1.64,2.24-2.02,3.51
		c-0.38,1.27-0.3,2.7-0.29,4.06c0.03,2.94,0.07,5.88,0.22,8.82c0.15,2.98,0.43,5.95,0.68,8.92c0.17,2.05,0.41,2.65,1.96,3.17
		c0.6,0.2,1.12,0.62,1.67,0.96c2.1,1.32,4.16,2.49,6.69,0.79c0.89-0.59,2.02-0.23,2.87,0.43c1.03,0.8,1.97,1.7,2.96,2.56
		c1.32-1.18,1.55-1.26,2.85-0.94c2.78,0.7,4.17,2.55,4.22,5.42c0.01,0.62,0.23,1.57,0.65,1.79c1.46,0.77,3.03,1.32,4.59,1.88
		c0.85,0.31,1.76,0.45,2.62,0.72c3.06,0.97,6.11,1.97,9.15,2.97c0.46,0.15,1.04,0.3,1.28,0.64c1.58,2.28,3.93,2.29,6.24,2.01
		c1.29-0.15,2.88-0.52,3.69-1.39c1.42-1.52,3.15-1.99,4.96-2.45c4.68-1.2,9.36-2.37,14.05-3.56c0.78-0.2,1.28-0.58,1.47-1.49
		c0.18-0.87,0.62-1.71,1.06-2.5c1.22-2.17,3.36-2.71,5.44-1.45c1.17-2.06,2.52-2.53,4.06-1.22c1.01,0.85,1.83,1.39,2.9,0.21
		c0.11-0.12,0.34-0.15,0.52-0.19c1.43-0.3,2.87-0.6,4.3-0.89c1.9-0.38,2.46-1.02,2.69-2.86c0.35-2.73,0.92-5.45,1.11-8.19
		c0.18-2.58-0.03-5.18-0.05-7.78C130.73,65.07,130.87,64.58,130.83,64.09z M116.85,66.77c0-0.01-0.01-0.02-0.01-0.03
		c0,0,0.01,0,0.02-0.01C116.85,66.75,116.85,66.76,116.85,66.77z"/>
	<path class="st0" d="M61.97,34.15c0.75,0,1.49,0,2.24,0c0.52,0,1.05,0.02,1.57-0.04c0.65-0.07,0.98-0.43,0.96-1.15
		c-0.02-0.95,0.33-1.18,1.14-0.68c0.63,0.39,1.13,0.98,1.74,1.43c2.24,1.67,5.3,0.86,6.45-1.68c0.44-0.96,0.82-1.95,1.3-2.89
		c0.49-0.98,1.32-1.48,2.42-1.15c1.3,0.38,2.17-0.18,2.97-1.09c0.72-0.83,1.45-1.66,2.27-2.38c0.39-0.34,1.33-0.72,1.45-0.58
		c0.43,0.5,0.88,1.22,0.85,1.83c-0.07,1.21,0.23,2.11,1.12,2.93c0.28,0.26,0.23,0.89,0.32,1.35c0.01,0.07-0.04,0.14-0.07,0.21
		c-0.78,2.37-0.53,3.1,1.42,4.24c1.34,0.79,3.38,0.39,4.58-0.84c0.42-0.42,0.94-0.74,1.41-1.11c0.15,0.57,0.25,1.15,0.48,1.69
		c0.24,0.57,0.59,1.1,0.95,1.74c-3.94,2.38-7.93,4.79-12.14,7.33c-0.35-1.74-0.7-3.3-0.93-4.87c-0.04-0.28,0.43-0.64,0.68-0.94
		c0.27-0.31,0.56-0.6,0.97-1.03c-1.28-0.46-2.43-0.25-3.45,0.23c-0.69,0.32-0.35,0.97,0.22,1.18c0.81,0.31,1,0.92,1.14,1.66
		c0.22,1.18,0.49,2.35,0.76,3.51c0.18,0.78-0.14,1.13-0.89,0.84c-3.98-1.52-8.26-2.12-12.04-4.29c-3.07-1.76-6.33-3.2-9.5-4.78
		c-0.15-0.08-0.28-0.21-0.42-0.32C61.94,34.38,61.96,34.26,61.97,34.15z"/>
	<path class="st0" d="M44.99,86.63c0.17-0.87,0.22-1.79,0.53-2.61c0.55-1.42,2.42-2.07,3.82-1.44c1.97,0.89,3.02,2.66,2.89,4.81
		c-0.03,0.41,0.04,0.83,0.06,1.24c0.12,0.01,0.23,0.02,0.35,0.03c0.06-0.25,0.15-0.5,0.19-0.75c0.06-0.45,0.06-0.91,0.15-1.35
		c0.39-1.93,1.61-2.57,3.43-1.83c2.28,0.94,3.28,2.8,2.79,5.26c-0.18,0.92-0.39,1.83-0.65,2.73c-0.71,2.45-2.98,2.93-4.94,3.41
		c-1.9,0.46-3.97,0.37-5.96,0.33c-3.6-0.07-6.52-1.69-8.56-4.57c-1.99-2.8-1.49-5.26,0-7.76c0.62-1.03,1.79-1.51,2.7-1.26
		c1.48,0.4,2.5,1.48,2.65,2.74c0.04,0.37,0.2,0.72,0.31,1.09C44.82,86.69,44.9,86.66,44.99,86.63z"/>
	<path class="st0" d="M119.93,90.01c0.21-0.54,0.39-0.9,0.49-1.29c0.45-1.69,1.87-2.2,3.29-2.62c0.34-0.1,1.04,0.29,1.25,0.65
		c1.28,2.1,1.46,4.32,0.28,6.52c-0.58,1.08-1.2,2.17-1.99,3.09c-1.78,2.05-4.36,2.34-6.82,2.61c-1.36,0.15-2.85-0.14-4.15-0.6
		c-0.78-0.27-1.61-1.12-1.92-1.91c-0.93-2.34-1.94-4.8-0.51-7.29c0.54-0.94,1.35-1.81,2.22-2.46c1.08-0.8,2.07-0.4,2.62,0.84
		c0.2,0.45,0.28,0.95,0.52,1.37c0.16,0.28,0.5,0.47,0.76,0.69c0.19-0.34,0.51-0.67,0.54-1.03c0.04-0.43-0.2-0.88-0.26-1.32
		c-0.12-0.93,0.37-1.64,1.17-1.84c0.48-0.12,1.17,0.22,1.65,0.54c0.68,0.46,0.97,1.16,0.51,1.98
		C119.18,88.65,119.12,89.29,119.93,90.01z"/>
	<path class="st0" d="M132.6,57.15c-0.45,0.13-0.9,0.25-1.34,0.39c-1.44,0.43-2.61-0.11-3.01-1.39c-0.36-1.16,0.44-2.45,1.75-2.9
		c0.59-0.2,1.14-0.48,1.71-0.72c-0.05-0.12-0.09-0.25-0.14-0.37c-0.79,0.06-1.6,0.24-2.38,0.15c-0.56-0.06-1.4-0.35-1.56-0.75
		c-0.21-0.56-0.09-1.45,0.24-1.96c1.04-1.58,4.39-2.59,6.25-2.05c1.63,0.47,3.21,0.91,4.55,2.13c2.33,2.11,2.81,4.99,1.32,7.73
		c-1.72,3.17-4.5,4.22-7.84,4.41c-1.07,0.06-1.91-0.43-1.98-1.41c-0.05-0.64,0.48-1.42,0.95-1.97c0.38-0.44,1.06-0.61,1.6-0.9
		C132.69,57.41,132.65,57.28,132.6,57.15z"/>
	<path class="st0" d="M37.07,45.88c0.26,0.17,0.51,0.38,0.79,0.51c1.11,0.51,1.66,1.59,1.39,2.77c-0.37,1.61-1.95,2.04-3.5,0.99
		c-0.54-0.37-1.13-0.66-1.69-0.99c-0.2,0.24-0.39,0.48-0.59,0.72c0.29,0.08,0.62,0.1,0.87,0.25c0.52,0.3,1.02,0.64,1.49,1.01
		c0.69,0.55,0.79,1.3,0.39,2.04c-0.42,0.78-1.14,1.34-2.04,1.02c-0.94-0.33-1.9-0.78-2.65-1.42c-1.58-1.37-3.21-2.73-3.87-4.88
		c-0.97-3.16,0.08-6.56,3.88-7.31c1.83-0.36,3.73-0.46,5.61-0.48c2.15-0.02,4.55,2.74,4.32,4.75c-0.16,1.4-1.26,1.91-2.53,1.21
		c-0.52-0.28-1.1-0.46-1.65-0.68C37.21,45.56,37.14,45.72,37.07,45.88z"/>
	<path class="st0" d="M71.86,14.22c0,0.56,0.03,1.12-0.01,1.68c-0.07,1.24-0.92,1.67-2.2,1.19c-0.54-0.21-1.29-0.59-1.65-0.39
		c-0.47,0.27-0.61,1.09-0.99,1.59c-0.53,0.7-1.13,1.36-1.77,1.96c-0.16,0.15-0.65,0.12-0.89-0.02c-0.77-0.43-1.44-0.54-2.18,0.08
		c-0.74,0.63-1.04,0.11-1.04-0.57c-0.01-2.84,0.35-5.6,1.65-8.21c0.89-1.78,1.58-3.67,2.4-5.48c0.35-0.79,0.77-1.55,1.24-2.28
		c0.8-1.22,1.63-1.25,2.28,0.03c0.69,1.33,1.24,2.75,1.68,4.19c0.57,1.86,0.97,3.77,1.44,5.67c0.04,0.18,0.05,0.37,0.07,0.56
		C71.89,14.22,71.88,14.22,71.86,14.22z"/>
	<path class="st0" d="M49.84,29.87c1.16,0.47,2.38,0.84,3.47,1.44c1.58,0.89,3.02,2.01,4.58,2.92c2.67,1.56,5.35,3.14,8.11,4.52
		c3.89,1.95,7.85,3.73,11.79,5.56c1.13,0.52,2.38,0.82,3.42,1.47c0.93,0.58,1.64,1.49,2.39,2.2c0.26-0.11,0.36-0.11,0.4-0.17
		c2.01-3.31,5.51-4.71,8.54-6.72c5.68-3.76,11.79-6.76,17.83-9.88c0.99-0.51,2.08-0.84,3.13-1.25c0.08,0.1,0.16,0.19,0.24,0.29
		c-0.4,0.34-0.78,0.72-1.21,1c-1.92,1.27-3.84,2.55-5.8,3.75c-3.47,2.14-6.97,4.25-10.47,6.34c-2.5,1.49-5.05,2.89-7.51,4.44
		c-1.13,0.72-2.1,1.7-3.14,2.56c0.04,0.12,0.07,0.24,0.11,0.36c0.48-0.1,1.1-0.04,1.42-0.32c2.33-2.03,5.3-2.43,8.11-3.28
		c-2.48,2.11-6.13,2.1-8.4,4.62c-1.57-0.9-3.16-1.36-5.01-0.92c-0.58,0.14-1.38-0.46-2.02-0.83c-2.67-1.57-5.33-3.16-7.96-4.79
		c-1.09-0.67-2.05-1.54-3.16-2.18c-2.26-1.29-4.57-2.48-6.86-3.72c-1.16-0.63-2.33-1.22-3.47-1.89c-2.8-1.64-5.58-3.3-8.37-4.96
		c-0.12-0.07-0.19-0.21-0.28-0.32C49.75,30.05,49.8,29.96,49.84,29.87z"/>
	<path class="st0" d="M96.31,14.27c0.46-0.86,0.74-1.51,1.12-2.09c0.9-1.35,1.59-2.75,1.4-4.44c0-0.04-0.01-0.08,0.01-0.11
		c0.91-2.09,1.82-4.17,2.74-6.28c1.31,0.54,1.3,1.61,1.51,2.47c0.5,2,0.99,4.02,1.27,6.06c0.28,1.96,0.29,3.97,0.44,5.95
		c0.06,0.75,0.28,1.49,0.27,2.24c-0.01,0.61-0.24,1.22-0.37,1.86c-0.6-0.77-1.1-1.33-1.49-1.96c-0.77-1.22-1.81-0.91-2.79-0.47
		c-0.84,0.38-1.11,0.11-1.16-0.68c-0.02-0.26-0.02-0.53-0.03-0.79c-0.06-1.35-0.66-1.86-2.02-1.75
		C97.03,14.28,96.85,14.27,96.31,14.27z"/>
	<path class="st0" d="M87.4,49.77c1.18-0.66,2.16-1.37,3.26-1.78c2.32-0.86,4.5-1.87,6.53-3.35c1.6-1.17,3.46-2,5.24-2.91
		c2.38-1.23,4.71-2.63,7.22-3.53c4.73-1.7,9.12-4,13.27-6.79c0.67-0.45,1.09-0.39,1.5,0.25c0.38,0.6,0.28,0.98-0.38,1.36
		c-1.28,0.72-2.46,1.63-3.77,2.3c-2.27,1.17-4.64,2.16-6.91,3.35c-2.2,1.16-4.24,2.66-6.5,3.68c-4.57,2.05-8.87,4.71-13.85,5.83
		c-1.35,0.3-2.64,1.16-3.79,1.99C88.52,50.66,88.18,50.52,87.4,49.77z"/>
	<path class="st0" d="M76.79,24.84c0.7,1.72-0.27,5.89-1.89,7.95c-0.62-1.43-1.71-1.79-3.05-1.23c-0.93,0.39-0.92,1.18-0.58,2.01
		c-2.21-0.15-3.26-2.2-2.02-3.98c1.44-2.08,3.38-3.54,5.85-4.25C75.66,25.19,76.23,25.01,76.79,24.84z"/>
	<path class="st0" d="M94.39,24.5c0.61,2.71,1.67,5.16,0.49,7.75c-0.3,0.66-0.91,1.17-1.43,1.83c-1.24-1.83-1.84-1.99-3.39-1.04
		c-0.64,0.39-0.89,0.12-1.02-0.49c-0.29-1.41,0.17-2.62,1.09-3.66c1.12-1.27,2.27-2.51,3.43-3.75
		C93.73,24.96,93.97,24.83,94.39,24.5z"/>
	<path class="st0" d="M78.57,51.95c2.49-3.35,5.86-3.12,8.76-1.25c0.85,0.55,0.82,1.51,0,2.36c-1.6,1.67-3.61,1.51-5.62,1.17
		c-0.7-0.12-1.45-0.33-2.01-0.73C79.21,53.16,78.95,52.5,78.57,51.95z"/>
	<path class="st0" d="M55.73,37.51c-0.83-0.32-1.63-0.69-2.48-0.94c-1.37-0.39-2.77-0.69-4.14-1.05c-0.8-0.21-1.61-0.42-2.37-0.74
		c-1.38-0.58-2.75-1.2-4.09-1.88c-1.19-0.61-2.27-1.34-2.4-2.89c-0.07-0.83,0.31-1.1,0.98-0.84c0.82,0.32,1.59,0.8,2.37,1.23
		c1.74,0.96,3.48,1.93,5.21,2.91c2.34,1.32,4.66,2.66,6.99,3.99C55.78,37.37,55.76,37.44,55.73,37.51z"/>
	<path class="st0" d="M89.66,45.86c0.36-0.24,0.7-0.51,1.07-0.73c2.34-1.37,4.71-2.71,7.04-4.1c3.99-2.38,7.99-4.75,11.94-7.2
		c1.44-0.89,2.79-1.95,4.13-2.99c0.45-0.35,0.75-0.9,1.24-1.52c0.58,0.27,1.28,0.6,2.31,1.08c-2.28,1.25-4.24,2.3-6.17,3.4
		c-1.51,0.86-3.08,1.66-4.44,2.73c-2.74,2.15-5.88,3.53-8.94,5.1c-1.67,0.86-3.12,2.13-4.73,3.1c-1.02,0.62-2.17,1.03-3.25,1.53
		C89.8,46.12,89.73,45.99,89.66,45.86z"/>
	<path class="st0" d="M55.16,31.48c0.41,0.19,0.83,0.36,1.22,0.58c3.05,1.66,6.07,3.38,9.15,4.99c2.98,1.55,5.97,3.1,9.05,4.44
		c2.1,0.91,4.37,1.44,6.55,2.17c0.71,0.24,1.44,0.49,2.09,0.85c0.35,0.19,0.78,0.63,0.79,0.97c0.01,0.47-0.33,0.94-0.53,1.42
		c-0.39-0.25-0.78-0.5-1.16-0.75c-0.89-0.59-1.73-1.3-2.69-1.76c-1.36-0.66-2.85-1.04-4.19-1.71c-4.94-2.46-9.86-4.95-14.75-7.5
		c-1.95-1.01-3.82-2.19-5.73-3.29C55.03,31.74,55.1,31.61,55.16,31.48z"/>
	<path class="st0" d="M80.35,49.47c-0.5,0-1.18,0.21-1.47-0.03c-2.4-2.02-5.12-3.46-7.93-4.79c-0.81-0.38-1.62-0.85-2.28-1.45
		c-3.6-3.33-8-5.39-12.19-7.78c-0.13-0.07-0.29-0.1-0.32-0.27c8.61,3.78,16.35,8.99,24.31,13.84C80.42,49.14,80.38,49.3,80.35,49.47
		z"/>
	<path class="st0" d="M105.26,38.26c1.66-1.14,3.27-2.37,5-3.39c2.56-1.52,5.2-2.92,7.83-4.32c0.36-0.19,0.87-0.11,1.32-0.02
		C117.26,33.1,108.29,38.1,105.26,38.26z"/>
	<path class="st0" d="M61.21,38.62c1.06,0.61,2.18,1.13,3.17,1.84c1.35,0.96,2.51,2.19,3.9,3.08c2,1.27,4.16,2.28,6.19,3.5
		c1.53,0.92,2.96,1.99,4.44,3c-0.05,0.17-0.1,0.34-0.15,0.51c-0.43,0.06-0.93,0.29-1.28,0.15c-0.97-0.4-2.08-0.59-2.6-1.78
		c-0.21-0.5-0.81-0.89-1.3-1.21c-2.05-1.34-4.18-2.56-6.18-3.96c-2.18-1.53-4.24-3.21-6.36-4.83
		C61.11,38.81,61.16,38.72,61.21,38.62z"/>
	<path class="st0" d="M103.89,33.93c-6.64,3.7-13.21,7.01-19.33,11.58c0.37-0.62,0.54-1.25,0.95-1.53c1.24-0.85,2.57-1.56,3.86-2.35
		c2.47-1.52,4.9-3.12,7.41-4.56c2.1-1.19,4.3-2.2,6.46-3.28C103.32,33.76,103.45,33.83,103.89,33.93z"/>
	<path class="st0" d="M111.89,36.42c0.89-0.6,1.77-1.23,2.68-1.8c2.04-1.28,4.1-2.52,6.15-3.78c0.26-0.16,0.51-0.37,0.79-0.42
		c0.2-0.03,0.53,0.11,0.62,0.28c0.09,0.16-0.03,0.46-0.12,0.67c-0.05,0.12-0.23,0.19-0.35,0.27c-2.99,1.84-5.96,3.69-9.27,4.93
		c-0.12,0.05-0.28,0.02-0.42,0.03C111.95,36.54,111.92,36.48,111.89,36.42z"/>
	<path class="st0" d="M43.4,28.87c3.2,0.87,5.62,3.02,7.92,5.38c-2.75-1.58-5.51-3.16-8.26-4.74C43.17,29.29,43.28,29.08,43.4,28.87
		z"/>
	<path class="st0" d="M45.55,28.66c0.69,0.28,1.46,0.45,2.04,0.87c2.76,1.98,5.46,4.04,8.18,6.07c0.04,0.03,0.02,0.14,0.06,0.63
		c-3.59-2.52-6.95-4.89-10.31-7.25C45.53,28.87,45.54,28.76,45.55,28.66z"/>
	<path class="st0" d="M104.93,39.82c-1.91,0.82-3.51,2.24-5.71,2.53c-0.95,0.12-1.83,0.8-2.73,1.25c-0.47,0.23-0.92,0.5-1.47,0.59
		c0.99-1.06,2.15-1.78,3.52-2.24c1.77-0.59,3.5-1.33,5.24-2.01c0.33-0.13,0.65-0.3,0.98-0.46C104.81,39.59,104.87,39.7,104.93,39.82
		z"/>
	<path class="st0" d="M58.86,37.89c1.26,0.97,2.52,1.94,3.89,2.99C61.23,40.87,59.68,39.73,58.86,37.89z"/>
	<path class="st0" d="M47.82,28.45c0.91,0.27,1.81,0.54,2.72,0.81c-0.04,0.15-0.09,0.31-0.13,0.46c-0.9-0.28-1.81-0.55-2.71-0.83
		C47.74,28.75,47.78,28.6,47.82,28.45z"/>
	<text transform="matrix(1 0 0 1 42.3027 70.0654)" class="st1 st2">如何</text>
	<text transform="matrix(1 0 0 1 93.2793 70.0654)" class="st1 st2">致富</text>
</g>
</svg>
